<?xml version="1.0" encoding="UTF-8" standalone="no"?>
<svg
   xmlns:dc="http://purl.org/dc/elements/1.1/"
   xmlns:cc="http://creativecommons.org/ns#"
   xmlns:rdf="http://www.w3.org/1999/02/22-rdf-syntax-ns#"
   xmlns:svg="http://www.w3.org/2000/svg"
   xmlns="http://www.w3.org/2000/svg"
   id="svg8"
   version="1.1"
   viewBox="0 0 201.06845 196.75301"
   height="196.75301mm"
   width="201.06845mm">
  <defs
     id="defs2" />
  <metadata
     id="metadata5">
    <rdf:RDF>
      <cc:Work
         rdf:about="">
        <dc:format>image/svg+xml</dc:format>
        <dc:type
           rdf:resource="http://purl.org/dc/dcmitype/StillImage" />
        <dc:title></dc:title>
      </cc:Work>
    </rdf:RDF>
  </metadata>
  <g
     transform="translate(-3.7696996,-55.231329)"
     id="layer1">
    <g
       style="opacity:1"
       id="g4404" />
    <g
       style="opacity:1"
       id="g4398" />
    <g
       style="opacity:1"
       id="g4392" />
    <g
       style="opacity:1"
       id="g4386" />
    <g
       style="opacity:1"
       id="g4380" />
    <g
       style="opacity:1"
       id="g4374" />
    <g
       style="opacity:1"
       id="g4368" />
    <g
       style="opacity:1"
       id="g4362" />
    <g
       style="opacity:1"
       id="g4356" />
    <g
       style="opacity:1"
       id="g4350" />
    <g
       style="opacity:1"
       id="g4344" />
    <g
       style="opacity:1"
       id="g4338" />
    <g
       style="opacity:1"
       id="g4332" />
    <g
       style="opacity:1"
       id="g4326" />
    <g
       style="opacity:1"
       id="g4320" />
    <g
       style="opacity:1"
       id="g4314" />
    <g
       style="opacity:1"
       id="g4308" />
    <g
       style="opacity:1"
       id="g4302" />
    <g
       style="opacity:1"
       id="g4296" />
    <g
       style="opacity:1"
       id="g4290" />
    <g
       style="opacity:1"
       id="g4284" />
    <g
       style="opacity:1"
       id="g4278" />
    <g
       style="opacity:1"
       id="g4272" />
    <g
       style="opacity:1"
       id="g4266" />
    <g
       style="opacity:1"
       id="g4260" />
    <g
       style="opacity:1"
       id="g4254" />
    <g
       style="opacity:1"
       id="g4248" />
    <g
       style="opacity:1"
       id="g4242" />
    <g
       style="opacity:1"
       id="g4236" />
    <g
       style="opacity:1"
       id="g4230" />
    <g
       style="opacity:1"
       id="g4224" />
    <g
       style="opacity:1"
       id="g4218" />
    <g
       style="opacity:1"
       id="g4212">
      <path
         d="m 53.09375,217.54883 v 3.09375 31.3418 h 6.226562 v -34.43555 z m 3.094021,3.09373 h 0.03754 v 28.24755 h -0.03754 z m 14.30637,-3.17576 v 3.09375 31.34179 h 6.226562 V 217.4668 Z m 3.093849,3.09375 h 0.03754 v 28.24754 h -0.03754 z m 11.980369,-3.06836 v 3.09375 31.34179 h 6.22461 v -34.43554 z m 3.093575,3.09419 h 0.03754 v 28.24755 h -0.03754 z m 14.580256,-3.09419 v 3.09375 31.34179 h 6.22656 v -34.43554 z m 3.0947,3.09419 h 0.0375 v 28.24755 h -0.0375 z m 13.98538,-3.51607 v 3.09375 31.3418 h 6.22656 v -34.43555 z m 3.0941,3.09377 h 0.0375 v 28.24754 h -0.0375 z m 13.64418,-3.67189 v 3.09375 31.34179 h 6.22656 v -34.43554 z m 3.09396,3.09376 h 0.0375 v 28.24755 h -0.0375 z m 14.72244,-3.46486 v 3.09571 31.34179 h 6.22657 v -34.4375 z m 3.09395,3.09485 h 0.0375 v 28.24755 h -0.0375 z M 154.50391,56.125 V 59.220703 90.5625 h 6.22656 V 56.125 Z m 3.09385,3.094856 h 0.0376 v 28.247546 h -0.0376 z M 136.2168,56.216797 v 3.09375 31.341797 h 6.22461 V 56.216797 Z m 3.09326,3.094181 h 0.0375 v 28.247545 h -0.0375 z m -21.05225,-2.941837 v 3.09375 31.341797 h 6.22461 V 56.369141 Z m 3.0938,3.093349 h 0.0375 v 28.247545 h -0.0375 z m -19.83794,-3.798428 v 3.095704 31.341796 h 6.22656 v -34.4375 z m 3.09451,3.095086 h 0.0375 v 28.247545 h -0.0375 z M 83.847656,55.230469 v 3.095703 31.341797 h 6.226563 v -34.4375 z m 3.094376,3.095085 h 0.03754 v 28.247545 h -0.03754 z m -3.094376,-3.095085 v 3.095703 31.341797 h 6.226563 v -34.4375 z m 3.094376,3.095085 h 0.03754 v 28.247545 h -0.03754 z M 67.345703,56.46875 v 3.09375 31.341797 h 6.226563 V 56.46875 Z m 3.09449,3.093937 h 0.03754 v 28.247545 h -0.03754 z M 49.996094,56.949219 v 3.095703 31.341797 h 6.226562 v -34.4375 z m 3.094482,3.095119 h 0.03754 v 28.247545 h -0.03754 z M 170.01562,200.39258 v 3.09375 3.13086 h 34.43555 v -6.22461 z m 3.09414,3.0934 h 28.24807 v 0.0375 h -28.24807 z m -3.09414,-17.70473 v 3.09375 3.13086 h 34.43555 v -6.22461 z m 3.09414,3.09332 h 28.24807 v 0.0375 h -28.24807 z m -3.09414,-15.57184 v 3.09571 3.13086 h 34.43555 v -6.22657 z m 3.09414,3.09478 h 28.24807 v 0.0375 h -28.24807 z m -3.09414,-16.63774 v 3.09375 3.13086 h 34.43555 v -6.22461 z m 3.09414,3.09312 h 28.24807 v 0.0375 h -28.24807 z m -2.77773,-17.42906 v 3.09375 3.13086 h 34.43555 v -6.22461 z m 3.09367,3.0937 h 28.24808 v 0.0375 H 173.4257 Z m -3.02336,-16.64058 v 3.09571 3.13086 h 34.43555 v -6.22657 z m 3.09365,3.09502 h 28.24807 v 0.0375 h -28.24807 z m -4.14443,-17.10283 v 3.09375 3.13086 h 34.43555 v -6.22461 z m 3.09369,3.09316 h 28.24808 v 0.0375 H 172.44525 Z M 4.1445312,206.23828 v 3.09375 3.13281 H 38.580078 v -6.22656 z m 3.0933118,3.09454 h 28.248076 v 0.0375 H 7.237843 Z m -2.2944836,-15.8543 v 3.0957 3.13086 H 39.378906 v -6.22656 z m 3.0936823,3.09503 H 36.285117 v 0.0375 H 8.0370417 Z M 169.42383,102.6543 v 3.09375 3.13086 h 34.4375 v -6.22461 z m 3.09494,3.0937 h 28.24807 v 0.0375 H 172.51877 Z M 4.3144531,179.90039 v 3.09375 3.13281 H 38.75 v -6.22656 z m 3.0941525,3.09442 H 35.656681 v 0.0375 H 7.4086056 Z M 4.6113281,164.51172 v 3.09375 3.13281 H 39.046875 v -6.22656 z m 3.0938449,3.09437 h 28.248076 v 0.0375 H 7.705173 Z M 3.9453125,149.36328 v 3.09375 3.13086 H 38.380859 v -6.22461 z m 3.0938072,3.0939 H 35.287195 v 0.0375 H 7.0391197 Z M 3.7695312,133.86914 v 3.0957 3.13086 H 38.205078 v -6.22656 z M 6.8637896,136.964 H 35.111865 v 0.0375 H 6.8637896 Z m -2.697774,-19.70228 v 3.0957 3.13086 H 38.601562 v -6.22656 z m 3.0931311,3.09473 H 35.507222 v 0.0375 H 7.2591467 Z M 4.7070312,100.49609 v 3.09375 3.13282 H 39.142578 v -6.22657 z m 3.0932127,3.09439 H 36.048319 v 0.0375 H 7.8002439 Z m 44.7349121,2.92514 v 3.09571 95.42773 H 154.17188 v -98.52344 z m 6.189453,6.18946 h 89.259771 v 86.14453 H 58.724609 Z m -3.094635,-3.09439 h 95.447916 v 92.33389 H 55.629974 Z M 33.357422,85.964844 v 3.03125 133.078126 H 175.25586 V 85.964844 Z m 6.060547,6.0625 H 169.19336 V 216.01172 H 39.417969 Z M 36.387691,88.995972 H 172.22438 V 219.04309 H 36.387691 Z"
         style="color:#000000;font-style:normal;font-variant:normal;font-weight:normal;font-stretch:normal;font-size:medium;line-height:normal;font-family:sans-serif;font-variant-ligatures:normal;font-variant-position:normal;font-variant-caps:normal;font-variant-numeric:normal;font-variant-alternates:normal;font-variant-east-asian:normal;font-feature-settings:normal;font-variation-settings:normal;text-indent:0;text-align:start;text-decoration:none;text-decoration-line:none;text-decoration-style:solid;text-decoration-color:#000000;letter-spacing:normal;word-spacing:normal;text-transform:none;writing-mode:lr-tb;direction:ltr;text-orientation:mixed;dominant-baseline:auto;baseline-shift:baseline;text-anchor:start;white-space:normal;shape-padding:0;shape-margin:0;inline-size:0;clip-rule:nonzero;display:inline;overflow:visible;visibility:visible;isolation:auto;mix-blend-mode:normal;color-interpolation:sRGB;color-interpolation-filters:linearRGB;solid-color:#000000;solid-opacity:1;vector-effect:none;fill:#000000;fill-opacity:1;fill-rule:evenodd;stroke:none;stroke-width:6.18845;stroke-linecap:butt;stroke-linejoin:miter;stroke-miterlimit:4;stroke-dasharray:none;stroke-dashoffset:0;stroke-opacity:1;color-rendering:auto;image-rendering:auto;shape-rendering:auto;text-rendering:auto;enable-background:accumulate;stop-color:#000000;stop-opacity:1"
         id="path4216" />
    </g>
  </g>
</svg>
